<?xml version="1.0" encoding="UTF-8"?>
<!DOCTYPE svg PUBLIC "-//W3C//DTD SVG 1.1//EN" "http://www.w3.org/Graphics/SVG/1.1/DTD/svg11.dtd">
<!-- Creator: CorelDRAW -->
<svg xmlns="http://www.w3.org/2000/svg" xml:space="preserve" width="250mm" height="100mm" version="1.1" style="shape-rendering:geometricPrecision; text-rendering:geometricPrecision; image-rendering:optimizeQuality; fill-rule:evenodd; clip-rule:evenodd"
viewBox="0 0 25000 10000"
 xmlns:xlink="http://www.w3.org/1999/xlink"
 xmlns:xodm="http://www.corel.com/coreldraw/odm/2003">
 <defs>
  <style type="text/css">
   <![CDATA[
    .fil0 {fill:#03091D}
    .fil8 {fill:#14264C}
    .fil7 {fill:#26395E}
    .fil1 {fill:#3A4964}
    .fil5 {fill:#4D5C73}
    .fil6 {fill:#626972}
    .fil9 {fill:#9BA3AD}
    .fil2 {fill:#E77B44}
    .fil3 {fill:#F87536}
    .fil4 {fill:white}
   ]]>
  </style>
 </defs>
 <g id="Camada_x0020_1">
  <metadata id="CorelCorpID_0Corel-Layer"/>
  <path class="fil0" d="M11424.1 7681.29c123.63,171.36 169.05,746.01 287.55,567.52 20.56,-30.97 223.55,-632.06 237.99,-694.66 -96.28,-10.6 -90.1,11.71 -118.72,97.27l-164.9 484.36c-39.8,-88.44 -71.05,-196.77 -105.14,-297.76 -27.22,-80.61 -49.81,-243.52 -119.79,-284.48 -104.3,-19.55 -131.13,379.23 -256.61,574.22 -36.57,-53.96 -90.41,-247.91 -111.62,-313.89 -66.84,-208 -55.5,-255.2 -144.99,-262.98 -13.86,25.97 -16.78,30.09 2.15,90.39l99.42 288.26c82.33,241.65 140.47,529.7 237.99,221.36l156.67 -469.61z"/>
  <path class="fil0" d="M12972.46 8202.72l2.09 -260.27c145.95,-0.92 420.63,-38.6 428.62,126.49 8.85,183.32 -296.44,134.24 -430.71,133.78zm4.64 -581.54c133.22,-0.25 398.9,-38.48 386.82,133.44 -10.85,154.39 -256.39,120.1 -387.83,119.08l1.01 -252.52zm416.82 237.22c36.44,-45.76 53.5,-62.94 46.96,-137.34 -18.2,-207.66 -355.79,-181.23 -546.2,-164.91l2.95 707.78c93.52,24.34 419.15,19.73 493.83,-23.57 57.56,-33.4 99.05,-98.31 86.51,-189.24 -12.66,-92.08 -63.31,-100.01 -119.39,-148.19l35.34 -44.53z"/>
  <path class="fil0" d="M20564.34 7916.3c-52.43,47.66 -207.63,32.82 -293.95,20.62l14.01 -318.35c75.2,-8.52 192.5,-14.17 247.36,12.69 101.14,1.38 77.26,13.4 153.14,63.77l-6.36 158.2c-41.37,30.52 -57.2,53.91 -114.2,63.07zm15.36 69.08c179.38,-20.01 239.1,-215.92 144.69,-347.45 -83.41,-116.2 -355.08,-87.74 -524.59,-86.88 2.52,129.29 5.37,259.22 3.68,388.54 -1.63,125.42 -35.43,341.62 35.59,341.74 67.95,0.15 39.46,-140.69 39.03,-275.42l217.58 3.16c71.76,72.69 172.35,309.04 287.53,260.43 -33.62,-73.54 -156.73,-225.24 -203.51,-284.12z"/>
  <path class="fil0" d="M16525.19 7631.75c79.99,-15.55 167.42,-7.47 249.69,-6.21 266.33,4.15 183.69,11.71 211.62,-34.23 -26.52,-48.9 6.52,-18.14 -47.66,-35.65l-499.15 -6.06 2.03 725.09 445.18 1.81c91.4,-2.24 82.7,14.2 105.9,-43.67 -23.66,-52.46 5.78,-33.25 -87.37,-35.65 -108.73,-2.85 -278.34,21.3 -379.23,-7.46l5.01 -237.13c159.65,-18.65 346.01,25.57 411.44,-31.35 -22.84,-60.48 26.09,-42.04 -92.17,-47.94 -86.14,-4.3 -196.9,13.92 -322.22,-0.4l-3.07 -241.15z"/>
  <path class="fil0" d="M14126.6 7633.9c531.13,-146.59 691.15,592.76 118.8,573.64l-117.02 -6.36 -3.81 -78.31 0 -36.66 0.46 -201.63 1.57 -250.68zm-81.72 639.9c140.69,7.93 358.33,19.79 470.47,-45.95 208.24,-122.09 383.81,-730.18 -468.38,-669.73l-2.09 715.68z"/>
  <path class="fil0" d="M18078.01 7621.73c372.68,-97.88 502.71,491.68 132.91,582.25 -369.83,90.59 -502.86,-485.08 -132.91,-582.25zm424.53 372.84c121.51,-503.48 -635.26,-597.89 -717.41,-161.87 -93.92,498.44 604.74,628.72 717.41,161.87z"/>
  <path class="fil0" d="M19555.75 7622.07c81.16,-0.86 162.35,-1.29 243.52,0.21 226.64,4.28 176.95,15.71 204.98,-30.97 -26.43,-55.66 36.91,-28.4 -74.86,-40.17l-453.42 -2.03 1.29 725.86 502.77 -4.03c50.59,-17.98 20.35,14.08 42.13,-38.11 -26.7,-47.2 25.6,-25.9 -74.64,-34.91l-392.05 2.71 -1.38 -251.67c90.53,0.1 364.69,40.08 409.75,-27.72 -21.82,-64.13 41.33,-31.93 -70.96,-46.59l-332.95 3.48 -3.32 -158.52 -0.86 -97.54z"/>
  <path class="fil0" d="M14979.5 7625.36c84.88,-5.97 170.65,-2.74 255.84,-1.29 74.43,1.26 171.45,23.84 196.13,-32.76 -21.39,-55.66 2.58,-35.87 -86.3,-37.1l-445.67 -2.76 2.98 722.59 463.84 2.25c92.29,-4.86 76.06,10.66 81.16,-61.77 -62.29,-37.65 -368.5,-11.71 -468.66,-16.14l6.05 -252.27 359.51 -2.4c57.28,-19.46 21.63,16.32 46.86,-40.78 -37.46,-44.66 12.33,-23.82 -81.41,-30.37l-333.5 0.96 3.17 -248.16z"/>
  <path class="fil0" d="M12228.29 7625.23c174.16,-7.28 487.65,41.46 449.76,-44.07 -19.33,-43.67 -79.84,-26.79 -137.22,-26.61l-389.71 -3.35 2.67 726.19 497.15 -6.2c38.02,-8.39 30.83,-7.78 50.59,-20.01 -29.6,-65.3 41.61,-44.56 -103.54,-51.48l-361.62 1.05 -6.51 -247.73 409.77 -13.43c-2.18,-114.75 -139.3,-44.65 -407.25,-63.31l-4.09 -251.05z"/>
  <path class="fil0" d="M18812.01 7626.22c173.02,-16.47 392.2,-16.29 397.14,167.15 5.23,193.36 -220.87,179.04 -397.27,162.42l0.13 -329.57zm-4 405.57c233.29,-0.04 525.45,19.26 481.6,-274.56 -35.96,-240.85 -319.92,-205.91 -557.38,-205.32 -1.11,129.19 1.47,258.3 0.58,387.68 -0.4,61.43 -0.95,122.44 -2.67,183.84 -4.15,147.48 0.4,134.23 42.59,154.49 60.51,-33.29 30.64,-110.42 35.28,-246.13z"/>
  <path class="fil0" d="M15570.69 7554.12c11.73,45.54 287.58,723.98 343.36,724.38 51.57,0.37 339.37,-679.08 356.4,-729.42 -118.13,2.06 -100.37,17.86 -137.86,115.12 -38.82,100.62 -174.13,420.51 -219.21,478.31 -50.74,-72.62 -174.74,-386.2 -216.02,-499.88 -36.97,-101.91 -14.96,-103.78 -126.67,-88.51z"/>
  <path class="fil0" d="M17184.85 8274.78l452.4 1.23c84.48,-18.28 29.44,21.45 53.47,-43.18 -30.58,-50.58 -71.6,-29.87 -146.03,-29.96l-283.84 0.98 2.24 -502.55c-0.4,-197.55 9.62,-125.24 -30,-152.22 -60.32,22.43 -23.32,-9.22 -45.48,42.93l-3.69 549.18 0.93 133.59z"/>
  <path class="fil0" d="M18728.66 3602.62c282.8,-13.25 720.54,-70.1 715.9,258.7 -2.21,156.82 -92.53,236.48 -243.77,252.83 -117.79,12.72 -348.31,9.62 -467.73,1.35l-4.4 -512.88zm670.08 724.72c453.39,-133.04 390.82,-685.63 209.16,-850.51 -115.21,-104.61 -306.8,-148.46 -512.92,-147.63 -183.77,0.73 -485.62,-18.01 -654.74,4.82l-1.01 1570.64 293 0.25 -2.86 -517.4 347.24 -0.77c138.23,166.17 242.1,354.55 384.91,518.57l329.82 -1.32c-64.78,-140.14 -337.99,-435.75 -392.6,-576.65z"/>
  <path class="fil0" d="M17119.14 3581.54c328.74,-82.77 573.8,149.94 624.81,422.59 61,325.94 -130,589.28 -381.44,653.11 -695.5,176.56 -905.76,-909.02 -243.37,-1075.7zm922.23 683.2c207.81,-1082.75 -1397.34,-1339.45 -1608.16,-316.3 -226.44,1099.07 1402.2,1389.39 1608.16,316.3z"/>
  <path class="fil0" d="M14966.5 4642.15l-1.75 -1044.48c309.47,0.21 845.37,-53.32 850.13,520.6 4.73,571.95 -538.79,527.23 -848.38,523.88zm-288.67 265.77c319.86,3.08 762.89,37.31 1021.16,-98.28 570.05,-299.33 543.83,-1115.75 -13.74,-1387.63 -282.18,-137.59 -670.63,-96.84 -1008.98,-98.62l1.56 1584.53z"/>
  <path class="fil0" d="M11579.97 4644.73c99.42,-173.66 546.38,-651.66 700.59,-852.5 232.15,-302.31 204.62,-118.35 208.18,-469.49l-1268.12 -0.34 1.6 265.87 856.74 2.21c-15.76,70.93 -71.27,116.56 -113.64,161.53 -181.84,193.02 -452.32,557.9 -624.05,750.84 -142.07,159.65 -158.45,126.49 -147.79,403.75l1325.75 2.71 -1.48 -265.87 -937.78 1.29z"/>
  <path class="fil0" d="M13535.1 3691.4c27.07,23.51 6.27,0.46 30.92,33.35l241.03 559.99 -519.37 -5.47 247.42 -587.87zm-373.85 856.9l764.42 5.25 146.07 352.16 315.12 1.29 -717.37 -1584.84 -253.97 5.19 -693.34 1578.82 290.63 -0.74 148.44 -357.13z"/>
  <path class="fil0" d="M10971.08 5777.6c254.92,0.56 678.28,-76.18 660.12,244.78 -16.2,285.78 -405.11,234.76 -657.02,228.89l-3.1 -473.67zm597.83 668.3c94.83,-59.19 236.78,-91.12 300.21,-298.07 56.31,-183.71 11.07,-356.3 -97.29,-461.99 -222.9,-217.4 -636.71,-136.05 -1059.18,-151.17l-0.7 1423.71 259.62 -4.05 3.87 -469.19 316.45 -0.8c72.92,115.53 247.48,378.19 343.09,474.14l303.51 -3.91 -369.58 -508.67z"/>
  <path class="fil0" d="M18144.63 5783.1c274.56,-2.58 710.52,-66.87 634.28,290.97 -46.25,217.22 -378.99,188.18 -634.92,175.54l1.96 -188.6 -1.32 -277.91zm590.98 662.8c139.46,-86.88 247.14,-117.34 294.62,-302.74 46.96,-183.32 -9.89,-368.23 -104.09,-463.25 -187.15,-188.76 -722.69,-152.16 -1038.49,-135.96l-3.78 1415.63 259.29 -1.81 2.36 -472.38 311.01 -4.8c43.98,104.06 285.22,375.12 338.94,479.02l309.04 -5.38 -368.9 -508.33z"/>
  <polygon class="fil0" points="23676.37,5786.49 24493.41,5784.3 24496.45,5540.48 23415.76,5540.54 23412.93,6966.31 24502.23,6959.67 24497.28,6728.51 23673.63,6727.92 23675.35,6368.98 24409.35,6365.35 24412.15,6132.22 23675.08,6131.54 "/>
  <polygon class="fil0" points="19647.45,5786.79 20473.49,5784.58 20476.01,5539.52 19392.68,5543.95 19391.58,6963.88 20481.24,6955.37 20478.96,6729.06 19648.9,6722.15 19649.02,6368.05 20375.61,6362.8 20384.59,6130.28 19647.33,6127.21 "/>
  <polygon class="fil0" points="16726.94,5783.2 17540.35,5780.15 17545.27,5538.54 16470.36,5540.26 16468.33,6964.04 17552.74,6958.29 17551.54,6726.48 16729.28,6726.48 16726.42,6366.58 17446.34,6364.37 17454.39,6130.1 16727.92,6129.15 "/>
  <path class="fil0" d="M9069.08 5540.69c10.27,270.41 -30.48,777.15 25.76,1008.16 64.63,265.59 273.05,439.5 597.18,439.56 801.33,0.21 602.34,-904.23 615,-1449.01l-269.76 -1.07c11.99,251.5 11.03,545.64 5.1,798.26 -5.65,240.29 -117.7,414.29 -368.54,405.38 -243.51,-8.67 -335.49,-183.32 -341.86,-423.45 -6.76,-255.48 -1.9,-527.43 1.82,-782.81l-264.7 4.98z"/>
  <path class="fil0" d="M14589.48 5781.63c159.71,-2.27 427.14,-25.14 529.97,57.5 65.67,52.8 101.38,185.53 57.96,300.22 -76.68,202.55 -363.01,173.3 -589.01,159.9l1.66 -274.9 -0.58 -242.72zm1.84 758.12c241.99,-35.52 442.91,39.25 653.33,-94.83 135.22,-86.18 257.38,-265.37 208.27,-519.1 -89.83,-464.2 -655.02,-384.08 -1123,-383.93l0.24 1416.37 258.73 -1.41 2.43 -417.1z"/>
  <path class="fil0" d="M8613.64 6581c-148.16,116.35 -330.31,241.55 -576.81,127.04 -165.37,-76.83 -291.89,-224.65 -279.94,-482.7 9.99,-215.19 148.38,-389.41 312.49,-449.43 297.02,-108.7 469.58,100.87 558.67,136.05l157.69 -174.86c-113.47,-99.2 -190.14,-171.58 -373.61,-211.53 -495.55,-107.93 -948.14,244.57 -926.51,755.85 34.67,818.73 1050.82,861.08 1300.36,457.75 -29.19,-38.44 -144.07,-139.52 -172.34,-158.17z"/>
  <path class="fil0" d="M12055.73 5541.74c37.65,92.93 133.9,219.79 190.26,311.68 457.81,746.51 335.25,406.03 355.17,1104.84l259.37 -1.87c10.05,-154.95 -12.9,-346.75 3.85,-491.87 12.1,-104.82 461.28,-751.91 540.88,-925.03l-285.63 6.43c-96.83,128.33 -268.53,464.82 -358.42,578.19 -22.56,28.45 -14.05,16.65 -31.13,31.96l-380.28 -615.32 -294.07 0.99z"/>
  <polygon class="fil0" points="21966.35,5785.16 22417.07,5784.06 22418.7,6962.41 22680.53,6956.57 22682.75,5787.19 23122.06,5782.21 23125.28,5542.17 21962.02,5540.14 "/>
  <polygon class="fil0" points="20677.46,5784.18 21116.77,5783.26 21117.6,6959.4 21374.67,6961.33 21373.51,5787.44 21821.55,5780.06 21825.05,5541 20674.33,5544.78 "/>
  <polygon class="fil0" points="10512.25,4910.01 10800.12,4909.4 10801.32,3324.74 10514.22,3325.69 10514.96,4649.65 "/>
  <polygon class="fil0" points="15770.57,6962.16 16032.37,6959.89 16035.81,5536.6 15770.63,5538.36 15774.25,6720.86 "/>
  <path class="fil0" d="M20830.44 3700.81c27.08,23.51 6.27,0.46 30.92,33.34l241.03 560 -519.37 -5.47 247.42 -587.87zm-373.85 856.89l764.42 5.26 146.07 352.15 315.13 1.29 -717.38 -1584.84 -253.96 5.2 -693.35 1578.81 290.64 -0.73 148.43 -357.14z"/>
  <g id="_1826971634224">
   <path class="fil1" d="M2843.4 5953.67c91.09,-67.23 191.24,82.95 90.59,137.02 -72.29,38.84 -204.83,-52.74 -90.59,-137.02zm514.47 -190c-26.83,-12.2 -5.2,2.31 -25.59,-17.39 -34.14,9.48 -10.37,-1.83 -40.95,23.39l-241.47 231.16c-38.46,-29.24 -32.82,-58.16 -114.22,-114.27 55.02,-75.5 237.23,-189.33 273.15,-262.1l-16.69 -27.9c-83.33,18.3 -202.46,219.92 -349.95,288.64 -38.71,18.03 -48.76,22.88 -70.18,53.99 -115.86,168.38 73.64,257.46 201.92,190.6 66.92,-34.86 59.97,-75.25 123.53,-124.66 31.96,-24.85 249.08,-196.72 260.45,-241.46z"/>
   <path class="fil1" d="M5904.35 3329.71l75.38 -0.51c12.39,-29.8 156,-158.57 192.45,-187.04 26.77,-20.89 39.41,-37.85 64.43,-59.46 28.08,-24.23 36.77,-27.37 65.75,-58.37 96.17,-102.94 124.11,-22.54 166.09,-83.16 51.78,-74.81 -28.32,-161.65 -101.92,-124.4 -38.53,19.49 -33.29,53.22 -39.06,97.89l-3.22 18.86c-10.43,17.07 -360.35,309.46 -419.9,396.19z"/>
   <path class="fil1" d="M3574.94 5911.44c21.27,17.21 50.87,40.25 80.95,57.25 14.04,20.55 -4.66,2.29 22.18,11.96 8.04,-24.76 3.7,-13.9 16.85,-32.66 3.89,-5.56 15.71,-17.71 21.87,-23.87 20.91,-20.91 22.6,-21.27 48.24,-41.94 95.63,-77.06 139.37,-152.62 209.91,-240.61 28.19,-35.17 16.83,-25.05 47.65,-40.04l-0.17 -7.18 -83.69 -22.75c-30.44,37.62 -60.33,52.83 -80.19,95.37 -56.77,10.69 -165.43,-12.58 -123.18,71.59 -66.86,52.28 -98.02,113.37 -160.42,172.88z"/>
   <path class="fil2" d="M2686.33 6685.15c-43.66,-62.48 -19.4,-123.61 68.1,-73.51l-6.5 60.26c-18.62,11.92 -29.77,15.56 -61.6,13.25zm865.15 -778.76l-56.91 -39.72c-18.98,46.76 -183.54,179.3 -231.8,224.53l-464.59 439.27c-54.81,42.77 -83.33,-34.5 -156.91,22.35 -123.95,95.78 58.01,287.57 156.08,156.17 55.56,-74.45 -23.54,-77.8 54.05,-148.26 84.5,-76.74 673.11,-610.88 700.08,-654.34z"/>
   <path class="fil2" d="M6539.4 2561.18c-31.32,32.87 -90.43,11.88 -86.17,-37.68 4.13,-48.21 10.16,-22.7 18.92,-30.61 49.78,-44.98 106.27,27.29 67.25,68.29zm-973.41 764.5l90.33 -0.05c50.44,-77.86 727.11,-642.65 764.94,-702.96 91.97,4.96 185.19,28.78 184.94,-88.57 -0.16,-92.23 -106.6,-131.25 -174.28,-80.36 -84.71,63.7 35.75,58.7 -107.78,185.6 -203.53,179.93 -422.1,358.42 -614.9,547.69 -50.08,49.19 -100.34,77.98 -143.25,138.65z"/>
   <path class="fil2" d="M5319.12 3244.36l73.29 48.71c16.61,-33.04 69.44,-79.18 99.71,-108.39l499.93 -459.57c67.54,-62.23 84.29,-9.63 135.37,-56.3 102.24,-93.36 -89.46,-222.95 -130.45,-85.17 -24.04,80.8 29.71,29.51 -71.28,120.24 -73.27,65.84 -573.88,535.75 -606.57,540.48z"/>
   <path class="fil2" d="M3910.01 6075.54c3.94,-8.09 -43.78,-19 -64.86,-28.91l-593.56 555.58c-112.89,111.5 -47.29,67.36 -131.99,80.35 -149.8,22.97 -73.29,239.53 57.46,163.98 74.43,-43.04 -4.1,-82.84 63.91,-148.61l216.16 -195.94c56.74,-49.08 423.01,-380.12 452.88,-426.45z"/>
   <path class="fil2" d="M3283.04 6283.92l77.69 0.63 -3.12 87.66c-33.9,15.05 -60.85,25.36 -84.47,-0.62 -25.76,-28.39 -5.22,-60.19 9.9,-87.67zm397.42 -295.86l-2.38 -7.4c-26.84,-9.67 -8.16,8.59 -22.18,-11.97l-265.49 250.32c-76.12,76.5 -44.39,9.93 -122.74,45.8 -65.99,53.2 -40.71,111.28 4.43,150.55 110.05,15.39 103.17,-16.26 119.78,-96.99 17.34,-84.16 271.34,-212.61 288.58,-330.31z"/>
   <path class="fil3" d="M4894.62 3819.1c-214.76,232.08 -330.59,25.28 -170.05,-65.75l-88.44 -17.21c-67.3,90.52 -42.19,229.89 79.75,256.94 111.63,-4.8 237.29,-121.75 320.63,-192.25 26.98,-24.35 46.77,-41.82 73.96,-65.83 51.9,-45.86 99.59,-91.27 148.41,-130.71 -22.01,-25.61 -39.01,-39.17 -70.76,-57.03 -13.27,30.75 -47.48,50.18 -72.81,71.45 -27.33,22.97 -46.14,39.22 -75.22,64.65 -32.46,36.52 -103.48,104.68 -145.47,135.74z"/>
   <path class="fil3" d="M3283.04 6283.92c-15.12,27.48 -35.66,59.28 -9.9,87.67 23.62,25.98 50.57,15.67 84.47,0.62l3.12 -87.66 -77.69 -0.63z"/>
   <path class="fil4" d="M4304.08 2261.34c112.08,-32.12 168.54,133.31 54.87,174.74 -116.89,42.56 -200.73,-132.93 -54.87,-174.74zm59.3 243.04c5.2,95.69 -12.72,464.25 12.38,489.44 63.03,63.21 51.74,-64.2 51.04,-98.36 -2.2,-108.69 0.68,-218.87 -0.12,-327.79 -0.64,-85.13 -5.09,-71.81 32.82,-133.09 23.9,-38.64 29.03,-84.54 15.71,-132.7 -55.64,-201.05 -395.51,-109.56 -297.49,117.58 28.88,66.96 53.71,32.95 56.85,113.69 5.55,142.45 -14.91,324.4 -0.25,484.61l56 -3.04 4 -509.47 69.06 -0.87z"/>
   <path class="fil4" d="M4978.67 7094.34c-51.29,107.12 -226.43,42.56 -177.2,-84.05 43.34,-111.49 234.45,-35.56 177.2,84.05zm-200.06 -716.43c-33.6,128.22 19.32,402.89 -3.22,535.81 -8.04,47.39 -29.88,37.75 -43.04,93.92 -54.33,231.94 284.7,283.21 315.51,75.06 18.8,-126.92 -65.18,-121.71 -72.03,-202.05 -13.79,-161.79 11.92,-356.84 -2.57,-528.25 -89.75,-1.16 -59.48,57.55 -59.33,290.43 0.17,247.23 23.73,290.83 -80.34,267.38l-7.16 -535.82 -47.82 3.52z"/>
   <path class="fil4" d="M4558.75 7385.49c71.29,-34.42 143.11,8.73 97.65,75.65 -22.65,33.37 -129.98,39.93 -97.65,-75.65zm19.96 -85.64c-41.99,33.71 -103.1,44.1 -90.88,144.13 17.24,140.92 243.86,140.42 237.27,-21.41 -4.27,-105.19 -70.63,-78.73 -82.06,-137.87 -10.82,-55.97 -2.86,-555.4 -3.33,-687.03l-12.66 -215.51 -33.84 1.98c-27.27,41.06 -13.13,803.75 -14.5,915.71z"/>
   <path class="fil4" d="M4652.98 2018.18c-89.18,27.71 -137.48,-40.75 -88.27,-88.19 49.74,-47.96 119.97,-2.42 88.27,88.19zm-34.96 76.33c60.21,-22.16 105.4,-47.09 105.55,-124.82 0.44,-204.68 -321.28,-114.27 -218.78,66.05 16.45,28.92 31.78,27.58 44.59,45.84 45.63,64.97 -9.41,743.27 12.11,923.97l57 1.29 -0.47 -912.33z"/>
   <path class="fil4" d="M5204.27 7195.92c-12.06,-75.65 97.35,-95.92 105.45,-22.81 9.59,86.43 -95.8,83.4 -105.45,22.81zm22.4 -935.98c-12.49,195.16 -3.7,432.08 -3.1,631.21 0.93,296.72 -20.44,127.7 -73.62,240.85 -40.41,85.95 28.97,178.75 120.27,169.79 86.28,-8.48 138.24,-124.06 75.17,-192.06 -44,-47.49 -58.72,-7.87 -61.28,-93.34 -7.45,-247.36 9.71,-515.48 -2.25,-780.44l-55.19 23.99z"/>
   <path class="fil4" d="M3910.18 2244.46c-31.3,-73.99 15.44,-134.89 75.14,-96.77 49.07,31.34 45.51,122.67 -75.14,96.77zm67.74 79.43c41.69,-32.12 87.32,-46.37 90.67,-118.99 2.78,-60.5 -29.35,-105.22 -78.14,-118.25 -149.93,-39.99 -187.42,135.91 -105.38,207.28 41.01,35.67 32.81,10.2 34.52,81.17 5.49,228.17 -11.56,487 -3.24,724.78 87.55,-10.09 56.86,-70.31 56.34,-159.41l5.23 -616.58z"/>
   <path class="fil4" d="M5133.09 6305.76c-72.4,13.16 -54.62,31.89 -53.81,111 0.55,52.94 -0.13,105.91 0.07,158.85 0.54,127.52 -10.4,56.87 -39.19,120.4 -22.45,49.55 9.01,90.16 44.25,99.85 50.91,13.99 90.9,-20.02 93.11,-64 3.48,-68.76 -35.65,-23.66 -41.48,-110.89 -6.68,-99.68 0.91,-212.71 -2.95,-315.21z"/>
   <path class="fil4" d="M4072.55 3054.48c74.68,-9.71 55.09,-8.46 54.88,-181.75 -0.29,-224.19 19.25,-115.71 43.95,-186.09 52.04,-148.29 -278.46,-87.38 -99.4,47.84l0.57 320z"/>
   <path class="fil4" d="M4738.11 3015.94c110.28,-140.43 -144.61,-196.97 -82.67,-11.18l82.67 11.18z"/>
   <path class="fil4" d="M4450.21 6386.05c-50,96.35 15.4,151.38 75.4,110.45 39.95,-27.28 34.63,-140.03 -75.4,-110.45z"/>
   <path class="fil5" d="M3361.75 5741.25c10,-53.96 12.7,-34.94 82.03,-90.05 41.97,-33.37 46.12,-57.84 89.36,-90.83 17.72,-13.51 35.7,-24.56 51.41,-39.38 33,-31.12 93,-112.74 139.57,-77.07 -6,43.78 -51.82,60.09 -80.22,80.4 -46.39,33.18 -38.69,50.34 -85.68,83.39 -75.19,52.88 -52.67,53.95 -139.6,120.21 -36.48,27.81 12.99,19.46 -56.87,13.33zm-136.93 -126.52c-16.84,-59.75 -21.89,-45.44 61.46,-109.6 71.84,-55.28 209.6,-233.35 283.98,-235.49 12.39,54.22 12.83,29.69 -20.56,58.9l-138.25 121.55c-39.78,43.21 -12.09,29.81 -84.28,84.7 -114.57,87.13 -31.98,52.25 -102.35,79.94zm-32.72 -18.17l16.69 27.9c35.04,-0.15 46.35,15.8 69.69,41.05 7.91,8.55 20.52,22.33 26.34,30.05 30.81,40.69 13.42,3.28 27.46,50.72 20.39,19.7 -1.24,5.19 25.59,17.39 51.5,2.37 79.89,47.11 105.34,70.46 23.19,-28.78 58.67,-53.61 86,-77.18 39.97,-34.48 52.94,-41.44 91.05,-78.16 52.54,-50.63 140.02,-107.76 178.26,-166.47 -7.49,-7.32 -3.57,-4.97 -18.6,-17.39l-56.76 -33.58c41.39,-72.59 85.81,-82.81 134.17,-132.85 210.83,-218.12 139.92,-128.05 226.52,-156.44 71.22,-23.36 52.65,-123.19 -11.55,-140.4 -50.93,-13.66 -70.55,8.88 -86.18,33.82 -40.39,66.26 38.91,29.89 -44.42,110.42 -59.92,57.89 -224.61,217.55 -271.51,242.48 -39.16,-21.62 -79.68,-69.54 -99.59,-107.5 37.19,-64.03 177.13,-144.75 193.71,-215.28l103.33 -4.51c28.31,-97.2 -28.92,-158.14 -116.62,-105.89 -0.59,37.36 17.17,75.42 1.57,96.98 -12.6,17.35 -137.7,75.76 -201.33,177.43 -52.25,-21.86 -48.96,-37.51 -86.13,-104.89 -20.97,-38.02 -38.31,-74.8 -53.75,-115.41 -34.2,-89.95 -60.49,-193.7 -54.24,-297.81l-124.72 -686.51c-8.14,-57.9 -1.02,-194.37 -35.88,-227.57 -67.59,52.28 -182.83,259.64 -230.01,373.6 -170.37,411.38 -116.58,832.92 96.48,1208.88 19.72,34.78 37.33,60.16 57.48,89.15 61.66,88.69 50.23,47.07 51.61,97.51z"/>
   <path class="fil5" d="M3371.91 3660.59c65.95,18.83 737.5,105.22 802.13,101 119.02,6.16 228.67,-27.67 351.06,13.87l107.16 20.84c70.59,14.32 151.66,47.17 205.85,76.2 47.51,-26.09 136.6,-125.07 182.86,-158.2 35.21,-30.77 59.87,-54.19 92.96,-82 30.68,-25.78 52.3,-46.86 78.66,-82.22 -210.79,-180.59 -612.92,-290.52 -964.32,-262.93 -179.06,14.06 -348.36,61.04 -492.05,128.17 -129.39,60.45 -287.9,164.1 -364.31,245.27z"/>
   <path class="fil5" d="M4170.71 6349.29c47.34,-14.95 10.94,3.45 34.9,-12.54 3.16,-2.13 5.94,-3.58 8.59,-6.1 15.56,-14.63 13.63,-37.36 5.44,-52.23 -72.21,-5.83 -133.92,-23.59 -194.11,-30.66 -66.76,-7.88 -81.98,46.72 -127.03,83.97l-555.31 506.34c-49.86,34.92 -61.42,-21.84 -135.76,42.33 -16.37,70.14 4.92,128.6 76.27,126.84 76.37,-1.89 82.37,-61.33 76.48,-129.09 90.56,-45.19 670.25,-594.38 691.23,-603.23 17.67,25.81 21.67,71.46 18.68,107.72 -3.51,42.62 -17.4,46.56 -51.8,80.15 -139.15,135.83 -226.15,148.94 -224.24,292.55 2.22,167.76 17.36,120.48 -108.87,154.87 -27.98,65.58 -25.18,105.04 38.89,140.72 113.04,-1.61 74.89,-65.79 97.08,-141.82 48.34,-165.41 8.18,-107.08 24.85,-198.54 9.35,-51.29 190.36,-200.81 224.84,-223.16l0.36 956.85c-28.96,34.2 -93.79,71.27 -37.4,141.6 42.02,52.39 104.32,19.49 141.08,-13.64 16.42,-125.98 -31.97,-81.86 -52.71,-139.26l8.25 -1120.27c52.97,7.76 29.73,0.95 40.29,36.6z"/>
   <path class="fil5" d="M5177.64 3173.69c14.74,-33.86 2.27,-12.78 25.13,-41.73l756.21 -711.02c71.41,-66.94 31.06,-0.68 152.87,-38.4 33.65,-116.38 -20.54,-184.51 -138.23,-125.29l-1.07 98.53c-72.73,33.89 -343.12,303.45 -418.42,371.87l-407.06 372.59 -7.19 -1194.4c-2.06,3.01 -3.84,6.98 -4.9,9.78 -19.46,51.31 -11.36,19.12 -11.19,155.68l-0.03 485.37c-0.1,111.63 5.71,216.91 8.59,327.34 2.55,97.64 -25.21,223.18 22.59,273.37l22.7 16.31z"/>
   <path class="fil5" d="M6032.89 2076.74c1.49,-31.42 52.93,-121.64 -43.59,-137.04 -82.02,-13.1 -91.97,53.27 -84.31,121.55 -35.39,16.23 -155.68,127.81 -189.11,161.8l-359.94 317.57c-51.73,55.72 -6.27,68.1 -83.66,87.01 -186.98,45.67 -103.22,197.9 -3.76,168.64 71.54,-21.06 49.19,-93.47 37.43,-148.98l354.16 -299.4c30.26,-25.23 56.82,-57.41 85.56,-83.54 29.47,-26.78 57.46,-46.96 84.66,-73.55 161.91,-158.29 33.57,-66.22 202.56,-114.06z"/>
   <path class="fil6" d="M4578.71 7299.85c1.37,-111.96 -12.77,-874.65 14.5,-915.71l33.84 -1.98 12.66 215.51c0.47,131.63 -7.49,631.06 3.33,687.03 11.43,59.14 77.79,32.68 82.06,137.87 6.59,161.83 -220.03,162.33 -237.27,21.41 -12.22,-100.03 48.89,-110.42 90.88,-144.13zm647.96 -1039.91l55.19 -23.99c11.96,264.96 -5.2,533.08 2.25,780.44 2.56,85.47 17.28,45.85 61.28,93.34 63.07,68 11.11,183.58 -75.17,192.06 -91.3,8.96 -160.68,-83.84 -120.27,-169.79 53.18,-113.15 74.55,55.87 73.62,-240.85 -0.6,-199.13 -9.39,-436.05 3.1,-631.21zm-448.06 117.97l47.82 -3.52 7.16 535.82c104.07,23.45 80.51,-20.15 80.34,-267.38 -0.15,-232.88 -30.42,-291.59 59.33,-290.43 14.49,171.41 -11.22,366.46 2.57,528.25 6.85,80.34 90.83,75.13 72.03,202.05 -30.81,208.15 -369.84,156.88 -315.51,-75.06 13.16,-56.17 35,-46.53 43.04,-93.92 22.54,-132.92 -30.38,-407.59 3.22,-535.81zm354.48 -72.15c3.86,102.5 -3.73,215.53 2.95,315.21 5.83,87.23 44.96,42.13 41.48,110.89 -2.21,43.98 -42.2,77.99 -93.11,64 -35.24,-9.69 -66.7,-50.3 -44.25,-99.85 28.79,-63.53 39.73,7.12 39.19,-120.4 -0.2,-52.94 0.48,-105.91 -0.07,-158.85 -0.81,-79.11 -18.59,-97.84 53.81,-111zm-682.88 80.29c110.03,-29.58 115.35,83.17 75.4,110.45 -60,40.93 -125.4,-14.1 -75.4,-110.45zm-230.57 -107.63c8.19,14.87 10.12,37.6 -5.44,52.23 -2.65,2.52 -5.43,3.97 -8.59,6.1 -23.96,15.99 12.44,-2.41 -34.9,12.54 -8.49,110.4 11.24,324.01 2.39,428.94 -3.98,47.2 -18.23,57.4 -12.87,110.22l75.38 6.51 -9.5 -421.46c-1.38,-67.24 -12.8,-107.17 17.18,-137.3 47.47,13.03 33.84,-1.46 36.55,56.7l-1.9 599.85c-15.55,49.51 4.02,4.9 -37.16,42.87 -102.13,94.15 66.1,193 112.17,102.44 38.64,-75.97 -31.84,-51.86 -26.69,-169.67 6.02,-137.89 -9.33,-543.04 12.23,-612.87 67.58,0.64 57.97,12.53 58.52,83.35l0.68 463.56c-0.4,203.21 2.38,406.38 5.36,609.55 1.49,101.55 2.97,203.5 2.74,305.06 -0.28,136 22.6,118.76 111.57,188.48l352.47 270.41c-8.82,-193.35 -1.57,-399.86 -0.97,-594.63 0.23,-75.96 -19.58,-220.75 20.67,-267.8 24.55,-28.7 119.84,-119.34 157.92,-133.67 6.41,163.69 5.45,339.45 2.93,503.6 -1.65,108.21 18.51,104.77 86.06,156.08 44.11,33.5 87.85,75.06 129.94,99.62 2.52,-177.22 -23.9,-197.21 53.88,-274.23 58.62,-58.07 99.31,-109.22 161.31,-166 103.2,-94.5 98.46,-49.43 96.91,-233.66 -0.89,-105.39 0.06,-210.68 0.19,-316.06 0.51,-431.05 -0.53,-861.91 1.03,-1292.94 -37.02,18.88 -42.7,35.31 -71.17,63.7 -21.44,21.39 -36.98,31.72 -58.31,54.56 -266.55,285.55 -825.01,466.12 -1230.58,403.92z"/>
   <path class="fil6" d="M5070.17 4077.63c19.6,26.29 40.68,50.78 58.99,76.32 17.97,25.11 28.69,45.96 51.01,68.56 84.34,-63.36 311.27,-281.33 388.33,-318.02 -27.88,-76.8 -84.79,-101.39 -135.83,-155.31 -43.95,-46.41 -107.5,-116.86 -175.68,-143.74 -59.13,47.77 -104.75,92.53 -167.6,148.08 -32.92,29.08 -66.25,54.93 -98.95,84.41 -148.18,126.98 -95.25,6.57 79.73,239.7z"/>
   <path class="fil6" d="M4978.67 7094.34c57.25,-119.61 -133.86,-195.54 -177.2,-84.05 -49.23,126.61 125.91,191.17 177.2,84.05z"/>
   <path class="fil6" d="M4558.75 7385.49c-32.33,115.58 75,109.02 97.65,75.65 45.46,-66.92 -26.36,-110.07 -97.65,-75.65z"/>
   <path class="fil6" d="M5204.27 7195.92c9.65,60.59 115.04,63.62 105.45,-22.81 -8.1,-73.11 -117.51,-52.84 -105.45,22.81z"/>
   <path class="fil0" d="M5189.28 3347.94c27.72,31.83 165.88,116.35 210.62,151.82 32.82,26.01 70.06,64.01 100.5,91.2 240.07,214.66 126.72,237.92 311.65,236.82l1106.43 0.27c229.89,0.05 489.15,-36.13 653.52,84.48 134.38,98.57 230.84,326.85 143.39,547.31 -31.12,78.47 -111.1,168.27 -167.08,205.27 -76.55,50.59 -181.29,71.28 -291.13,72.19l-1117.55 2.09c-93.7,-0.35 -269.84,-10.74 -355.26,3.32l1.35 1492.89 502.4 0.37 4.58 -998.88c250.54,-61.04 1036.62,81.09 1429.52,-104.44 800.25,-377.89 672.85,-1627.46 -225.29,-1788.31 -207.87,-37.22 -525.63,-19.4 -747.76,-19.51 -166.96,-0.09 -638.7,-22.12 -769.44,4.37l-75.38 0.51 -248.03 -4.08 -90.33 0.05c-91.2,-0.62 -108.65,8.03 -173.58,-32.61l-73.29 -48.71 -11.96 4.62c-12.62,16.88 -12.79,31.51 -15.95,39.61l-31.38 29.37c-1.49,0.76 -4.47,2.4 -6.07,3.2 -63.1,30.92 -42.34,4.28 -64.48,26.78z"/>
   <polygon class="fil0" points="2164.74,6233.24 2673.77,6235.28 2675.03,3329.26 2163.15,3328.63 "/>
   <path class="fil0" d="M4655.59 5603.62c-84.28,59.18 -415.25,49.43 -523.47,23.18l-109.54 -25.26c-30.81,14.99 -19.45,4.86 -47.63,40.02 -70.56,87.99 -114.3,163.56 -209.93,240.63 -25.62,20.65 -27.31,21.02 -48.22,41.92 -6.17,6.17 -17.98,18.32 -21.88,23.88 -13.15,18.78 -8.8,7.89 -16.84,32.67l2.38 7.4c180.68,52.55 202.37,109.58 518.58,144.12 589.79,64.42 1047.92,-183.64 1372.23,-609.01l-191.92 -163.22c-66.85,-51.72 -131.69,-114.75 -197.09,-157.86 -87.03,117.43 -326.85,362.68 -526.67,401.53z"/>
   <path class="fil0" d="M3463.22 5834.14l31.36 32.52 56.89 39.74 23.47 5.04c132.5,-126.37 239.82,-185.13 363.79,-338.36 -32.21,-35.43 -21.2,-4.28 -49.59,-27.74l-70.61 -33.02c-38.24,58.7 -125.73,115.85 -178.28,166.46 -38.1,36.72 -51.06,43.69 -91.04,78.19 -27.31,23.56 -62.81,48.39 -85.99,77.17z"/>
   <path class="fil7" d="M4738.11 3015.94l-82.67 -11.18c-61.94,-185.79 192.95,-129.25 82.67,11.18zm-665.56 38.54l-0.57 -320c-179.06,-135.22 151.44,-196.13 99.4,-47.84 -24.7,70.38 -44.24,-38.1 -43.95,186.09 0.21,173.29 19.8,172.04 -54.88,181.75zm290.83 -550.1l-69.06 0.87 -4 509.47 -56 3.04c-14.66,-160.21 5.8,-342.16 0.25,-484.61 -3.14,-80.74 -27.97,-46.73 -56.85,-113.69 -98.02,-227.14 241.85,-318.63 297.49,-117.58 13.32,48.16 8.19,94.06 -15.71,132.7 -37.91,61.28 -33.46,47.96 -32.82,133.09 0.8,108.92 -2.08,219.1 0.12,327.79 0.7,34.16 11.99,161.57 -51.04,98.36 -25.1,-25.19 -7.18,-393.75 -12.38,-489.44zm-385.46 -180.49l-5.23 616.58c0.52,89.1 31.21,149.32 -56.34,159.41 -8.32,-237.78 8.73,-496.61 3.24,-724.78 -1.71,-70.97 6.49,-45.5 -34.52,-81.17 -82.04,-71.37 -44.55,-247.27 105.38,-207.28 48.79,13.03 80.92,57.75 78.14,118.25 -3.35,72.62 -48.98,86.87 -90.67,118.99zm640.1 -229.38l0.47 912.33 -57 -1.29c-21.52,-180.7 33.52,-859 -12.11,-923.97 -12.81,-18.26 -28.14,-16.92 -44.59,-45.84 -102.5,-180.32 219.22,-270.73 218.78,-66.05 -0.15,77.73 -45.34,102.66 -105.55,124.82zm571.26 1253.43c22.14,-22.5 1.38,4.14 64.48,-26.78 1.6,-0.8 4.58,-2.44 6.07,-3.2l31.38 -29.37c3.16,-8.1 3.33,-22.73 15.95,-39.61 -9.8,-12.3 -5.73,-8.08 -19.89,-19.46l-43.09 -26.63c-37.23,-21.95 -28.65,-23.65 -66.54,-29.2l-22.7 -16.31c-47.8,-50.19 -20.04,-175.73 -22.59,-273.37 -2.88,-110.43 -8.69,-215.71 -8.59,-327.34l0.03 -485.37c-0.17,-136.56 -8.27,-104.37 11.19,-155.68 1.06,-2.8 2.84,-6.77 4.9,-9.78 90.99,-19.46 67.72,-149.69 -50.02,-141.3 -42.96,27 -73.09,65.92 -37.89,118.28 33.29,49.53 38.72,-1.25 36.21,143.22 -2.16,123.62 -0.4,248.79 -0.48,372.61 -0.13,172.29 27.88,584.46 -0.89,729.83l-48.37 -22.62c-2.24,-58.33 -9.88,-485.46 5.83,-528.94 9.99,-27.63 51,-97.84 -24.17,-110.43 -70.74,-11.84 -67.74,57.71 -48.01,94.44 30.73,57.25 18.22,56.82 17.96,165.05 -0.33,120.73 0.45,242.03 -1.24,362.7 -51.57,-11.74 -51.63,-5.53 -57.93,-46.09l0.93 -294.03c0.34,-127.97 0.32,-256.23 3.16,-384.17 112.29,-77.09 47.37,-185.98 -45.74,-158.43 -40.11,11.87 -59.5,57.25 -40.32,105.89 26.62,67.34 38.82,-6.26 35.43,120.1 -5.5,204.95 -0.49,412.28 -3.78,621.79l-77.31 -9.24 5.01 -1573.63c-43.6,-24.13 -79.18,-58.2 -120.5,-92.38 -57.32,-47.41 -318.74,-270.69 -349.63,-276.03 -2.73,198.29 -3.9,398.05 -4.07,596.35 -0.06,83.86 18,218.42 -26.04,268.01 -30.4,34.23 -118.85,120.53 -155.32,138.61l-0.88 -589.69 -221.75 -178.58c-3.78,294.58 18.04,192.66 -69.74,294.61l-127.03 121.49c-46.54,38.3 -99.36,92.66 -100.29,159.07 -5.46,393.16 -15.8,1061.28 0.14,1387.99 60.69,-15.76 183.14,-87.36 362.71,-132.91 271.43,-68.85 582.63,-53.81 848.13,30.84 185.91,59.28 256,118.48 345.29,149.69z"/>
   <path class="fil7" d="M4304.08 2261.34c-145.86,41.81 -62.02,217.3 54.87,174.74 113.67,-41.43 57.21,-206.86 -54.87,-174.74z"/>
   <path class="fil7" d="M4652.98 2018.18c31.7,-90.61 -38.53,-136.15 -88.27,-88.19 -49.21,47.44 -0.91,115.9 88.27,88.19z"/>
   <path class="fil7" d="M3910.18 2244.46c120.65,25.9 124.21,-65.43 75.14,-96.77 -59.7,-38.12 -106.44,22.78 -75.14,96.77z"/>
   <path class="fil8" d="M3224.82 5614.73c70.37,-27.69 -12.22,7.19 102.35,-79.94 72.19,-54.89 44.5,-41.49 84.28,-84.7l138.25 -121.55c33.39,-29.21 32.95,-4.68 20.56,-58.9 -74.38,2.14 -212.14,180.21 -283.98,235.49 -83.35,64.16 -78.3,49.85 -61.46,109.6z"/>
   <path class="fil8" d="M3361.75 5741.25c69.86,6.13 20.39,14.48 56.87,-13.33 86.93,-66.26 64.41,-67.33 139.6,-120.21 46.99,-33.05 39.29,-50.21 85.68,-83.39 28.4,-20.31 74.22,-36.62 80.22,-80.4 -46.57,-35.67 -106.57,45.95 -139.57,77.07 -15.71,14.82 -33.69,25.87 -51.41,39.38 -43.24,32.99 -47.39,57.46 -89.36,90.83 -69.33,55.11 -72.03,36.09 -82.03,90.05z"/>
   <path class="fil9" d="M3216.54 3827.42c34.86,33.2 27.74,169.67 35.88,227.57l124.72 686.51c15.57,-151.86 1.23,-232.32 64.93,-379.48 46.71,-107.9 104.44,-204.74 164.39,-275.37 63.61,-74.93 150.86,-148.32 245.66,-205.38 170.57,-102.66 267.83,-81.9 321.93,-119.67 -64.64,4.22 -736.18,-82.18 -802.13,-101.03l-155.38 166.85z"/>
   <path class="fil2" d="M3845.22 5524.74l81.07 42.06c16.18,-32.2 66.58,-73.93 96.08,-102.37l487.04 -447.72c65.8,-60.63 82.12,-9.4 131.87,-54.85 99.6,-90.96 -87.15,-217.22 -127.09,-82.98 -23.42,78.7 28.96,28.74 -69.42,117.14 -71.4,64.14 -567.73,524.11 -599.55,528.72z"/>
   <path class="fil2" d="M4237.3 5612.04l-41.21 26.09 79.95 8.07 51.44 -41.92c57.01,-52.52 71.14,-8.12 114.23,-47.53 86.3,-78.75 -75.5,-188.14 -110.05,-71.88 -20.31,68.2 25.07,24.9 -60.16,101.51 -10.29,9.23 -7.06,0.81 -34.2,25.66z"/>
  </g>
 </g>
</svg>
